<?xml version="1.0" encoding="UTF-8" standalone="no"?>
<svg width="96px" height="62px" viewBox="0 0 96 62" version="1.1" xmlns="http://www.w3.org/2000/svg" xmlns:xlink="http://www.w3.org/1999/xlink" xmlns:sketch="http://www.bohemiancoding.com/sketch/ns">
    <!-- Generator: Sketch 3.3.2 (12043) - http://www.bohemiancoding.com/sketch -->
    <title>Slice 1</title>
    <desc>Created with Sketch.</desc>
    <defs></defs>
    <g id="Page-1" stroke="none" stroke-width="1" fill="none" fill-rule="evenodd" sketch:type="MSPage">
        <g id="Group" sketch:type="MSLayerGroup" fill="#000000">
            <path d="M49.32,60.838 L46.551,60.246 L46.551,7.418 C46.551,3.497 49.742,0.308 53.662,0.308 L90.554,0.308 L90.554,55.905 L53.784,55.905 C52.244,55.904 50.21,58.848 49.32,60.838 L49.32,60.838 Z M53.664,3.2 C51.339,3.2 49.445,5.093 49.445,7.418 L49.445,55.36 C50.609,54.078 52.088,53.012 53.784,53.012 L87.661,53.012 L87.661,3.2 L53.664,3.2 L53.664,3.2 Z" id="Shape" sketch:type="MSShapeGroup"></path>
            <g transform="translate(0.000000, 5.000000)" id="Shape" sketch:type="MSShapeGroup">
                <path d="M48.193,0.972 L47.806,0.972 C47.929,1.434 48,1.917 48,2.418 C48,1.917 48.071,1.434 48.193,0.972 L48.193,0.972 Z"></path>
                <path d="M89.107,0.972 L89.107,3.865 L92.406,3.865 L92.406,53.8 L48.761,53.8 C48.279,54.628 48,55.246 48,55.246 C48,55.246 47.721,54.628 47.239,53.799 L3.595,53.799 L3.595,3.864 L6.893,3.864 L6.893,0.971 L0.7,0.971 L0.7,56.691 L95.3,56.691 L95.3,0.971 L89.107,0.971 L89.107,0.972 Z"></path>
            </g>
            <path d="M46.681,60.838 C45.785,58.85 43.747,55.904 42.216,55.904 L5.445,55.904 L5.445,0.308 L42.336,0.308 C46.257,0.308 49.445,3.497 49.445,7.418 L49.445,60.246 L46.681,60.838 L46.681,60.838 Z M8.34,53.014 L42.216,53.014 C43.913,53.014 45.39,54.078 46.553,55.362 L46.553,7.418 C46.553,5.093 44.662,3.2 42.336,3.2 L8.34,3.2 L8.34,53.014 L8.34,53.014 Z" id="Shape" sketch:type="MSShapeGroup"></path>
        </g>
    </g>
</svg>