<?xml version="1.0" encoding="UTF-8" standalone="no"?>
<svg width="84px" height="82px" viewBox="0 0 84 82" version="1.1" xmlns="http://www.w3.org/2000/svg" xmlns:xlink="http://www.w3.org/1999/xlink" xmlns:sketch="http://www.bohemiancoding.com/sketch/ns">
    <!-- Generator: Sketch 3.3.2 (12043) - http://www.bohemiancoding.com/sketch -->
    <title>Slice 1</title>
    <desc>Created with Sketch.</desc>
    <defs></defs>
    <g id="Page-1" stroke="none" stroke-width="1" fill="none" fill-rule="evenodd" sketch:type="MSPage">
        <path d="M41.7816765,0 C18.7093183,0 0,18.7058589 0,41.7816765 C0,60.2419155 11.971722,75.9034712 28.5728604,81.4281895 C30.6609756,81.8149544 31.4275865,80.5218174 31.4275865,79.4182576 C31.4275865,78.4219402 31.3888408,75.1306334 31.3708517,71.6393712 C19.7471489,74.1668347 17.2944093,66.7096758 17.2944093,66.7096758 C15.3937955,61.8803041 12.6553064,60.5961616 12.6553064,60.5961616 C8.86445717,58.0029689 12.9410558,58.0562442 12.9410558,58.0562442 C17.136659,58.3509881 19.3458544,62.3618575 19.3458544,62.3618575 C23.0723582,68.7493589 29.1201431,66.9027123 31.5043859,65.8351306 C31.8793887,63.1346953 32.962192,61.2915082 34.157081,60.2481425 C24.8767997,59.1916309 15.121192,55.6090396 15.121192,39.5994647 C15.121192,35.0378532 16.7533536,31.3106576 19.4261133,28.3846671 C18.9923001,27.3323069 17.5621695,23.0827365 19.8308673,17.3276198 C19.8308673,17.3276198 23.3394266,16.2046871 31.3238034,21.6104008 C34.6566234,20.6846559 38.230912,20.2203997 41.7816765,20.2044863 C45.332441,20.2203997 48.9094971,20.6846559 52.2485441,21.6104008 C60.2232345,16.2046871 63.7269506,17.3276198 63.7269506,17.3276198 C66.0011835,23.0827365 64.570361,27.3323069 64.1365478,28.3846671 C66.8155345,31.3106576 68.4366259,35.0378532 68.4366259,39.5994647 C68.4366259,55.6470934 58.6623373,59.1805607 49.3585318,60.2149319 C50.8571592,61.5115282 52.1925013,64.0542132 52.1925013,67.952305 C52.1925013,73.5427525 52.1440692,78.0420942 52.1440692,79.4182576 C52.1440692,80.5301201 52.8961504,81.8329434 55.0140168,81.4226544 C71.6061606,75.8917091 83.5626611,60.2356885 83.5626611,41.7816765 C83.5626611,18.7058589 64.8561104,0 41.7816765,0" id="Fill-4" fill="#FFFFFF" sketch:type="MSShapeGroup"></path>
    </g>
</svg>