<svg xmlns="http://www.w3.org/2000/svg" xmlns:xlink="http://www.w3.org/1999/xlink" version="1.1" x="0px" y="0px" viewBox="0 0 72 72" enable-background="new 0 0 72 72" xml:space="preserve"><g><g><path d="M8.193,57.7c-0.229,0-0.457-0.066-0.653-0.196c-0.33-0.219-0.528-0.589-0.528-0.984V20.88    c0-0.475,0.285-0.903,0.722-1.088l18.538-7.824c0.364-0.155,0.782-0.115,1.112,0.104c0.33,0.219,0.528,0.588,0.528,0.984v35.64    c0,0.475-0.285,0.903-0.722,1.088L8.652,57.607C8.504,57.67,8.349,57.7,8.193,57.7z M9.374,21.664v33.076l16.175-6.826V14.837    L9.374,21.664z"></path></g><g><path d="M45.268,57.7c-0.229,0-0.456-0.066-0.653-0.196c-0.329-0.219-0.527-0.589-0.527-0.984V20.88    c0-0.475,0.284-0.903,0.722-1.088l18.539-7.824c0.365-0.153,0.781-0.114,1.112,0.104c0.329,0.219,0.527,0.588,0.527,0.984v35.64    c0,0.475-0.284,0.903-0.722,1.088l-18.539,7.823C45.579,57.67,45.423,57.7,45.268,57.7z M46.448,21.664v33.075l16.178-6.826    V14.837L46.448,21.664z"></path></g><g><path d="M45.268,57.7c-0.155,0-0.312-0.03-0.459-0.093l-18.537-7.823c-0.438-0.185-0.722-0.613-0.722-1.088v-35.64    c0-0.396,0.198-0.765,0.528-0.984c0.33-0.218,0.747-0.258,1.112-0.104l18.537,7.824c0.438,0.185,0.722,0.613,0.722,1.088V56.52    c0,0.396-0.198,0.766-0.527,0.984C45.724,57.634,45.496,57.7,45.268,57.7z M27.912,47.913l16.175,6.826V21.664l-16.175-6.827    V47.913z"></path></g><g><path d="M59.129,28.524c-0.246,0-0.491-0.094-0.679-0.281l-5.446-5.448c-0.375-0.375-0.374-0.982,0-1.357    c0.375-0.375,0.982-0.374,1.357,0l5.446,5.448c0.375,0.375,0.374,0.982,0,1.357C59.62,28.431,59.374,28.524,59.129,28.524z"></path></g><g><path d="M53.683,28.524c-0.245,0-0.491-0.094-0.679-0.281c-0.374-0.375-0.375-0.982,0-1.357l5.446-5.448    c0.375-0.375,0.982-0.375,1.357,0c0.374,0.375,0.375,0.982,0,1.357l-5.446,5.448C54.174,28.431,53.928,28.524,53.683,28.524z"></path></g><g><path d="M47.516,50.307c-0.595-0.002-1.179-0.087-1.738-0.255c-0.508-0.151-0.796-0.687-0.644-1.194    c0.151-0.507,0.686-0.795,1.194-0.644c0.91,0.271,1.928,0.22,2.813-0.158c0.481-0.209,1.05,0.016,1.26,0.504    c0.209,0.487-0.017,1.051-0.504,1.26C49.143,50.143,48.342,50.307,47.516,50.307z M11.906,48.479c-0.53,0-0.959-0.43-0.959-0.96    v-3.543c0-0.53,0.43-0.96,0.959-0.96s0.959,0.43,0.959,0.96v3.543C12.866,48.049,12.436,48.479,11.906,48.479z M43.27,48.02    c-0.312,0-0.616-0.151-0.801-0.431c-0.654-0.987-1-2.139-1-3.33v-0.576c0-0.53,0.43-0.96,0.96-0.96s0.96,0.43,0.96,0.96v0.576    c0,0.813,0.235,1.599,0.68,2.271c0.293,0.441,0.172,1.037-0.271,1.329C43.635,47.968,43.451,48.02,43.27,48.02z M52.052,47.524    c-0.146,0-0.295-0.034-0.435-0.104c-0.472-0.241-0.66-0.818-0.42-1.291c0.297-0.583,0.447-1.212,0.446-1.869v-1.15    c0-0.53,0.43-0.96,0.96-0.96s0.96,0.43,0.96,0.96v1.149c0.001,0.962-0.22,1.885-0.655,2.741    C52.738,47.333,52.401,47.524,52.052,47.524z M27.167,44.438c-0.13,0-0.26-0.005-0.389-0.013    c-0.529-0.033-0.931-0.489-0.897-1.019c0.033-0.528,0.498-0.917,1.018-0.897c0.961,0.062,1.923-0.212,2.706-0.786    c0.428-0.313,1.028-0.219,1.341,0.207c0.313,0.428,0.221,1.028-0.207,1.342C29.696,44.035,28.462,44.438,27.167,44.438z     M23.66,43.035c-0.238,0-0.476-0.088-0.662-0.265c-1.027-0.979-1.68-2.291-1.838-3.695c-0.059-0.526,0.319-1.002,0.846-1.061    c0.53-0.071,1.001,0.319,1.061,0.846c0.108,0.957,0.553,1.853,1.254,2.521c0.384,0.365,0.399,0.973,0.033,1.356    C24.166,42.935,23.913,43.035,23.66,43.035z M11.906,41.393c-0.53,0-0.959-0.43-0.959-0.96V36.89c0-0.53,0.43-0.959,0.959-0.959    s0.959,0.43,0.959,0.959v3.543C12.866,40.963,12.436,41.393,11.906,41.393z M42.429,41.1c-0.53,0-0.96-0.43-0.96-0.96v-3.542    c0-0.53,0.43-0.959,0.96-0.959s0.96,0.43,0.96,0.959v3.542C43.389,40.67,42.959,41.1,42.429,41.1z M32.106,40.576    c-0.076,0-0.153-0.009-0.23-0.028c-0.515-0.127-0.829-0.646-0.702-1.161c0.08-0.323,0.12-0.658,0.12-0.995v-2.306    c0-0.53,0.43-0.959,0.959-0.959s0.959,0.43,0.959,0.959v2.306c0,0.491-0.059,0.98-0.176,1.454    C32.929,40.283,32.538,40.576,32.106,40.576z M52.604,40.526c-0.53,0-0.96-0.43-0.96-0.96v-3.543c0-0.53,0.43-0.959,0.96-0.959    s0.96,0.43,0.96,0.959v3.543C53.563,40.097,53.134,40.526,52.604,40.526z M22.081,36.386c-0.53,0-0.959-0.43-0.959-0.959v-3.543    c0-0.53,0.43-0.959,0.959-0.959s0.959,0.43,0.959,0.959v3.543C23.041,35.956,22.611,36.386,22.081,36.386z M11.906,34.306    c-0.53,0-0.959-0.43-0.959-0.959v-3.543c0-0.53,0.43-0.959,0.959-0.959s0.959,0.43,0.959,0.959v3.543    C12.866,33.876,12.436,34.306,11.906,34.306z M42.429,34.014c-0.53,0-0.96-0.43-0.96-0.959v-3.543c0-0.53,0.43-0.959,0.96-0.959    s0.96,0.43,0.96,0.959v3.543C43.389,33.584,42.959,34.014,42.429,34.014z M32.253,33.502c-0.53,0-0.959-0.43-0.959-0.959V29    c0-0.53,0.43-0.959,0.959-0.959s0.959,0.43,0.959,0.959v3.543C33.213,33.072,32.783,33.502,32.253,33.502z M52.604,33.44    c-0.53,0-0.96-0.43-0.96-0.959v-1.94c0-0.53,0.43-0.959,0.96-0.959s0.96,0.43,0.96,0.959v1.94    C53.563,33.01,53.134,33.44,52.604,33.44z M22.081,29.3c-0.53,0-0.959-0.43-0.959-0.959v-1.904c0-0.448-0.071-0.888-0.211-1.306    c-0.168-0.503,0.104-1.046,0.606-1.214c0.505-0.167,1.046,0.104,1.214,0.606c0.206,0.616,0.31,1.26,0.31,1.915v1.904    C23.041,28.87,22.611,29.3,22.081,29.3z M11.91,27.221c-0.011,0-0.022,0-0.033,0c-0.529-0.018-0.944-0.462-0.926-0.992    c0.048-1.414,0.595-2.773,1.541-3.827c0.353-0.395,0.959-0.427,1.355-0.074c0.395,0.354,0.427,0.961,0.074,1.355    c-0.646,0.719-1.019,1.647-1.052,2.611C12.851,26.813,12.425,27.221,11.91,27.221z M41.865,27.02c-0.348,0-0.683-0.189-0.854-0.52    c-0.444-0.859-1.179-1.539-2.068-1.914c-0.488-0.206-0.718-0.768-0.513-1.257c0.207-0.489,0.774-0.715,1.257-0.512    c1.304,0.549,2.38,1.543,3.029,2.801c0.243,0.471,0.059,1.05-0.412,1.293C42.164,26.985,42.014,27.02,41.865,27.02z     M33.076,26.577c-0.18,0-0.361-0.05-0.523-0.156c-0.444-0.29-0.569-0.884-0.279-1.328c0.775-1.188,1.945-2.069,3.294-2.483    c0.508-0.154,1.044,0.129,1.199,0.636c0.155,0.507-0.13,1.043-0.636,1.199c-0.921,0.282-1.72,0.885-2.25,1.697    C33.696,26.424,33.389,26.577,33.076,26.577z M19.663,23.065c-0.172,0-0.346-0.046-0.503-0.143    c-0.819-0.505-1.826-0.704-2.759-0.57c-0.529,0.076-1.011-0.289-1.086-0.813s0.289-1.011,0.813-1.086    c1.364-0.197,2.839,0.095,4.04,0.837c0.451,0.278,0.591,0.87,0.313,1.32C20.299,22.904,19.985,23.065,19.663,23.065z"></path></g></g></svg>