<?xml version="1.0" encoding="UTF-8" standalone="no"?>
<svg width="58px" height="47px" viewBox="0 0 58 47" version="1.1" xmlns="http://www.w3.org/2000/svg" xmlns:xlink="http://www.w3.org/1999/xlink" xmlns:sketch="http://www.bohemiancoding.com/sketch/ns">
    <!-- Generator: Sketch 3.3.2 (12043) - http://www.bohemiancoding.com/sketch -->
    <title>Slice 1</title>
    <desc>Created with Sketch.</desc>
    <defs></defs>
    <g id="Page-1" stroke="none" stroke-width="1" fill="none" fill-rule="evenodd" sketch:type="MSPage">
        <g id="Group" sketch:type="MSLayerGroup" fill="#000000">
            <path d="M1.193,46.7 C0.964,46.7 0.736,46.634 0.54,46.504 C0.21,46.285 0.012,45.915 0.012,45.52 L0.012,9.88 C0.012,9.405 0.297,8.977 0.734,8.792 L19.272,0.968 C19.636,0.813 20.054,0.853 20.384,1.072 C20.714,1.291 20.912,1.66 20.912,2.056 L20.912,37.696 C20.912,38.171 20.627,38.599 20.19,38.784 L1.652,46.607 C1.504,46.67 1.349,46.7 1.193,46.7 L1.193,46.7 Z M2.374,10.664 L2.374,43.74 L18.549,36.914 L18.549,3.837 L2.374,10.664 L2.374,10.664 Z" id="Shape" sketch:type="MSShapeGroup"></path>
            <path d="M38.268,46.7 C38.039,46.7 37.812,46.634 37.615,46.504 C37.286,46.285 37.088,45.915 37.088,45.52 L37.088,9.88 C37.088,9.405 37.372,8.977 37.81,8.792 L56.349,0.968 C56.714,0.815 57.13,0.854 57.461,1.072 C57.79,1.291 57.988,1.66 57.988,2.056 L57.988,37.696 C57.988,38.171 57.704,38.599 57.266,38.784 L38.727,46.607 C38.579,46.67 38.423,46.7 38.268,46.7 L38.268,46.7 Z M39.448,10.664 L39.448,43.739 L55.626,36.913 L55.626,3.837 L39.448,10.664 L39.448,10.664 Z" id="Shape" sketch:type="MSShapeGroup"></path>
            <path d="M38.268,46.7 C38.113,46.7 37.956,46.67 37.809,46.607 L19.272,38.784 C18.834,38.599 18.55,38.171 18.55,37.696 L18.55,2.056 C18.55,1.66 18.748,1.291 19.078,1.072 C19.408,0.854 19.825,0.814 20.19,0.968 L38.727,8.792 C39.165,8.977 39.449,9.405 39.449,9.88 L39.449,45.52 C39.449,45.916 39.251,46.286 38.922,46.504 C38.724,46.634 38.496,46.7 38.268,46.7 L38.268,46.7 Z M20.912,36.913 L37.087,43.739 L37.087,10.664 L20.912,3.837 L20.912,36.913 L20.912,36.913 Z" id="Shape" sketch:type="MSShapeGroup"></path>
            <path d="M52.129,17.524 C51.883,17.524 51.638,17.43 51.45,17.243 L46.004,11.795 C45.629,11.42 45.63,10.813 46.004,10.438 C46.379,10.063 46.986,10.064 47.361,10.438 L52.807,15.886 C53.182,16.261 53.181,16.868 52.807,17.243 C52.62,17.431 52.374,17.524 52.129,17.524 L52.129,17.524 Z" id="Shape" sketch:type="MSShapeGroup"></path>
            <path d="M46.683,17.524 C46.438,17.524 46.192,17.43 46.004,17.243 C45.63,16.868 45.629,16.261 46.004,15.886 L51.45,10.438 C51.825,10.063 52.432,10.063 52.807,10.438 C53.181,10.813 53.182,11.42 52.807,11.795 L47.361,17.243 C47.174,17.431 46.928,17.524 46.683,17.524 L46.683,17.524 Z" id="Shape" sketch:type="MSShapeGroup"></path>
            <path d="M40.516,39.307 C39.921,39.305 39.337,39.22 38.778,39.052 C38.27,38.901 37.982,38.365 38.134,37.858 C38.285,37.351 38.82,37.063 39.328,37.214 C40.238,37.485 41.256,37.434 42.141,37.056 C42.622,36.847 43.191,37.072 43.401,37.56 C43.61,38.047 43.384,38.611 42.897,38.82 C42.143,39.143 41.342,39.307 40.516,39.307 L40.516,39.307 Z M4.906,37.479 C4.376,37.479 3.947,37.049 3.947,36.519 L3.947,32.976 C3.947,32.446 4.377,32.016 4.906,32.016 C5.435,32.016 5.865,32.446 5.865,32.976 L5.865,36.519 C5.866,37.049 5.436,37.479 4.906,37.479 L4.906,37.479 Z M36.27,37.02 C35.958,37.02 35.654,36.869 35.469,36.589 C34.815,35.602 34.469,34.45 34.469,33.259 L34.469,32.683 C34.469,32.153 34.899,31.723 35.429,31.723 C35.959,31.723 36.389,32.153 36.389,32.683 L36.389,33.259 C36.389,34.072 36.624,34.858 37.069,35.53 C37.362,35.971 37.241,36.567 36.798,36.859 C36.635,36.968 36.451,37.02 36.27,37.02 L36.27,37.02 Z M45.052,36.524 C44.906,36.524 44.757,36.49 44.617,36.42 C44.145,36.179 43.957,35.602 44.197,35.129 C44.494,34.546 44.644,33.917 44.643,33.26 L44.643,32.11 C44.643,31.58 45.073,31.15 45.603,31.15 C46.133,31.15 46.563,31.58 46.563,32.11 L46.563,33.259 C46.564,34.221 46.343,35.144 45.908,36 C45.738,36.333 45.401,36.524 45.052,36.524 L45.052,36.524 Z M20.167,33.438 C20.037,33.438 19.907,33.433 19.778,33.425 C19.249,33.392 18.847,32.936 18.881,32.406 C18.914,31.878 19.379,31.489 19.899,31.509 C20.86,31.571 21.822,31.297 22.605,30.723 C23.033,30.41 23.633,30.504 23.946,30.93 C24.259,31.358 24.167,31.958 23.739,32.272 C22.696,33.035 21.462,33.438 20.167,33.438 L20.167,33.438 Z M16.66,32.035 C16.422,32.035 16.184,31.947 15.998,31.77 C14.971,30.791 14.318,29.479 14.16,28.075 C14.101,27.549 14.479,27.073 15.006,27.014 C15.536,26.943 16.007,27.333 16.067,27.86 C16.175,28.817 16.62,29.713 17.321,30.381 C17.705,30.746 17.72,31.354 17.354,31.737 C17.166,31.935 16.913,32.035 16.66,32.035 L16.66,32.035 Z M4.906,30.393 C4.376,30.393 3.947,29.963 3.947,29.433 L3.947,25.89 C3.947,25.36 4.377,24.931 4.906,24.931 C5.435,24.931 5.865,25.361 5.865,25.89 L5.865,29.433 C5.866,29.963 5.436,30.393 4.906,30.393 L4.906,30.393 Z M35.429,30.1 C34.899,30.1 34.469,29.67 34.469,29.14 L34.469,25.598 C34.469,25.068 34.899,24.639 35.429,24.639 C35.959,24.639 36.389,25.069 36.389,25.598 L36.389,29.14 C36.389,29.67 35.959,30.1 35.429,30.1 L35.429,30.1 Z M25.106,29.576 C25.03,29.576 24.953,29.567 24.876,29.548 C24.361,29.421 24.047,28.902 24.174,28.387 C24.254,28.064 24.294,27.729 24.294,27.392 L24.294,25.086 C24.294,24.556 24.724,24.127 25.253,24.127 C25.782,24.127 26.212,24.557 26.212,25.086 L26.212,27.392 C26.212,27.883 26.153,28.372 26.036,28.846 C25.929,29.283 25.538,29.576 25.106,29.576 L25.106,29.576 Z M45.604,29.526 C45.074,29.526 44.644,29.096 44.644,28.566 L44.644,25.023 C44.644,24.493 45.074,24.064 45.604,24.064 C46.134,24.064 46.564,24.494 46.564,25.023 L46.564,28.566 C46.563,29.097 46.134,29.526 45.604,29.526 L45.604,29.526 Z M15.081,25.386 C14.551,25.386 14.122,24.956 14.122,24.427 L14.122,20.884 C14.122,20.354 14.552,19.925 15.081,19.925 C15.61,19.925 16.04,20.355 16.04,20.884 L16.04,24.427 C16.041,24.956 15.611,25.386 15.081,25.386 L15.081,25.386 Z M4.906,23.306 C4.376,23.306 3.947,22.876 3.947,22.347 L3.947,18.804 C3.947,18.274 4.377,17.845 4.906,17.845 C5.435,17.845 5.865,18.275 5.865,18.804 L5.865,22.347 C5.866,22.876 5.436,23.306 4.906,23.306 L4.906,23.306 Z M35.429,23.014 C34.899,23.014 34.469,22.584 34.469,22.055 L34.469,18.512 C34.469,17.982 34.899,17.553 35.429,17.553 C35.959,17.553 36.389,17.983 36.389,18.512 L36.389,22.055 C36.389,22.584 35.959,23.014 35.429,23.014 L35.429,23.014 Z M25.253,22.502 C24.723,22.502 24.294,22.072 24.294,21.543 L24.294,18 C24.294,17.47 24.724,17.041 25.253,17.041 C25.782,17.041 26.212,17.471 26.212,18 L26.212,21.543 C26.213,22.072 25.783,22.502 25.253,22.502 L25.253,22.502 Z M45.604,22.44 C45.074,22.44 44.644,22.01 44.644,21.481 L44.644,19.541 C44.644,19.011 45.074,18.582 45.604,18.582 C46.134,18.582 46.564,19.012 46.564,19.541 L46.564,21.481 C46.563,22.01 46.134,22.44 45.604,22.44 L45.604,22.44 Z M15.081,18.3 C14.551,18.3 14.122,17.87 14.122,17.341 L14.122,15.437 C14.122,14.989 14.051,14.549 13.911,14.131 C13.743,13.628 14.015,13.085 14.517,12.917 C15.022,12.75 15.563,13.021 15.731,13.523 C15.937,14.139 16.041,14.783 16.041,15.438 L16.041,17.342 C16.041,17.87 15.611,18.3 15.081,18.3 L15.081,18.3 Z M4.91,16.221 L4.877,16.221 C4.348,16.203 3.933,15.759 3.951,15.229 C3.999,13.815 4.546,12.456 5.492,11.402 C5.845,11.007 6.451,10.975 6.847,11.328 C7.242,11.682 7.274,12.289 6.921,12.683 C6.275,13.402 5.902,14.33 5.869,15.294 C5.851,15.813 5.425,16.221 4.91,16.221 L4.91,16.221 Z M34.865,16.02 C34.517,16.02 34.182,15.831 34.011,15.5 C33.567,14.641 32.832,13.961 31.943,13.586 C31.455,13.38 31.225,12.818 31.43,12.329 C31.637,11.84 32.204,11.614 32.687,11.817 C33.991,12.366 35.067,13.36 35.716,14.618 C35.959,15.089 35.775,15.668 35.304,15.911 C35.164,15.985 35.014,16.02 34.865,16.02 L34.865,16.02 Z M26.076,15.577 C25.896,15.577 25.715,15.527 25.553,15.421 C25.109,15.131 24.984,14.537 25.274,14.093 C26.049,12.905 27.219,12.024 28.568,11.61 C29.076,11.456 29.612,11.739 29.767,12.246 C29.922,12.753 29.637,13.289 29.131,13.445 C28.21,13.727 27.411,14.33 26.881,15.142 C26.696,15.424 26.389,15.577 26.076,15.577 L26.076,15.577 Z M12.663,12.065 C12.491,12.065 12.317,12.019 12.16,11.922 C11.341,11.417 10.334,11.218 9.401,11.352 C8.872,11.428 8.39,11.063 8.315,10.539 C8.24,10.015 8.604,9.528 9.128,9.453 C10.492,9.256 11.967,9.548 13.168,10.29 C13.619,10.568 13.759,11.16 13.481,11.61 C13.299,11.904 12.985,12.065 12.663,12.065 L12.663,12.065 Z" id="Shape" sketch:type="MSShapeGroup"></path>
        </g>
    </g>
</svg>