<?xml version="1.0" encoding="UTF-8" standalone="no"?>
<svg width="70px" height="57px" viewBox="0 0 70 57" version="1.1" xmlns="http://www.w3.org/2000/svg" xmlns:xlink="http://www.w3.org/1999/xlink" xmlns:sketch="http://www.bohemiancoding.com/sketch/ns">
    <!-- Generator: Sketch 3.3.2 (12043) - http://www.bohemiancoding.com/sketch -->
    <title>Slice 1</title>
    <desc>Created with Sketch.</desc>
    <defs>
        <path id="path-1" d="M0.0153284672,0.210107623 L69.8441606,0.210107623 L69.8441606,56.9846637 L0.0153284672,56.9846637"></path>
    </defs>
    <g id="Page-1" stroke="none" stroke-width="1" fill="none" fill-rule="evenodd" sketch:type="MSPage">
        <g id="TwitterLogo_white" sketch:type="MSLayerGroup">
            <mask id="mask-2" sketch:name="Clip 2" fill="white">
                <use xlink:href="#path-1"></use>
            </mask>
            <g id="Clip-2"></g>
            <path d="M69.8441606,6.93278475 C67.2743431,8.07304036 64.5126642,8.84369058 61.6140511,9.19029148 C64.5727007,7.41587892 66.844635,4.60626457 67.914562,1.2586009 C65.1459854,2.90137668 62.0792701,4.0945426 58.8153285,4.73764574 C56.2013139,1.95129148 52.4772628,0.210107623 48.3559489,0.210107623 C40.4421168,0.210107623 34.0261314,6.62912556 34.0261314,14.5465022 C34.0261314,15.6701435 34.1531022,16.7643901 34.3973358,17.8136502 C22.4881387,17.2157892 11.929635,11.5081211 4.86218978,2.83440807 C3.62875912,4.95184305 2.92211679,7.4146009 2.92211679,10.0419686 C2.92211679,15.0157937 5.45208029,19.4040269 9.2969708,21.9749058 C6.94788321,21.9005247 4.73854015,21.2556323 2.80638686,20.1818341 C2.80536496,20.2416457 2.80536496,20.301713 2.80536496,20.3620359 C2.80536496,27.3083677 7.74470803,33.1029417 14.299927,34.4198206 C13.0974088,34.7475067 11.8315328,34.9225964 10.5245255,34.9225964 C9.60124088,34.9225964 8.70350365,34.8328789 7.82875912,34.6654574 C9.65208029,40.3613677 14.9439781,44.5062646 21.2143431,44.6220538 C16.3102555,48.4671256 10.1316058,50.759139 3.41824818,50.759139 C2.26171533,50.759139 1.1210219,50.6914036 0,50.559 C6.34138686,54.626704 13.8735401,57 21.9656934,57 C48.3224818,57 62.7353285,35.1541749 62.7353285,16.2089596 C62.7353285,15.5873274 62.7215328,14.9690179 62.6939416,14.354287 C65.4934307,12.3329596 67.9229927,9.80783408 69.8441606,6.93278475" id="Fill-1" fill="#FFFFFF" sketch:type="MSShapeGroup" mask="url(#mask-2)"></path>
        </g>
    </g>
</svg>